<svg width="87" height="76" viewBox="0 0 87 76" fill="none" xmlns="http://www.w3.org/2000/svg">
<path d="M82.3367 36.7743L66.0581 30.6741V12.3901C66.0581 9.86238 64.4909 7.60427 62.1149 6.71114L45.2633 0.391799C43.8983 -0.1306 42.3817 -0.1306 40.9999 0.391799L24.1483 6.71114C21.7722 7.60427 20.205 9.86238 20.205 12.3901V30.6741L3.92641 36.7743C1.5672 37.6675 0 39.9256 0 42.4533V61.0069C0 63.2987 1.29757 65.4051 3.35346 66.4331L20.205 74.8589C21.907 75.7183 23.9292 75.7183 25.6312 74.8589L43.14 66.096L60.6488 74.8589C62.3508 75.7183 64.373 75.7183 66.075 74.8589L82.9265 66.4331C84.9824 65.4051 86.28 63.2987 86.28 61.0069V42.4533C86.28 39.9256 84.7128 37.6675 82.3367 36.7743ZM60.3286 30.8089L46.0048 36.1845V24.6918L60.3286 18.4567V30.8089ZM25.9514 12.1542L43.14 5.71689L60.3286 12.1542V12.2553L43.14 19.2318L25.9514 12.2553V12.1542ZM40.1067 61.2091L25.7829 68.371V55.0414L40.1067 48.503V61.2091ZM40.1067 42.3353L22.9181 49.3119L5.72953 42.3353V42.2342L22.9181 35.7969L40.1067 42.2342V42.3353ZM80.5505 61.2091L66.2266 68.371V55.0414L80.5505 48.503V61.2091ZM80.5505 42.3353L63.3619 49.3119L46.1733 42.3353V42.2342L63.3619 35.7969L80.5505 42.2342V42.3353Z" fill="#FE0000"/>
</svg>
